<mxfile host="app.diagrams.net" modified="2024-05-19T18:42:57.478Z" agent="Mozilla/5.0 (Windows NT 10.0; Win64; x64) AppleWebKit/537.36 (KHTML, like Gecko) Chrome/124.0.0.0 Safari/537.36" etag="lWT4lJgB1lH5ZOZZfsMx" version="24.4.4" type="github">
  <diagram name="Page-1" id="e7e014a7-5840-1c2e-5031-d8a46d1fe8dd">
    <mxGraphModel dx="5736" dy="3332" grid="0" gridSize="10" guides="1" tooltips="1" connect="1" arrows="1" fold="1" page="0" pageScale="1" pageWidth="1169" pageHeight="826" background="none" math="0" shadow="0">
      <root>
        <mxCell id="0" />
        <mxCell id="1" parent="0" />
        <mxCell id="V1ozlMfIuVR3TN5RS1_V-75" value="Comunication Module" style="swimlane;whiteSpace=wrap;movable=1;resizable=1;rotatable=1;deletable=1;editable=1;locked=0;connectable=1;startSize=42;fontSize=20;" parent="1" vertex="1">
          <mxGeometry x="630" y="120" width="330" height="4840" as="geometry" />
        </mxCell>
        <mxCell id="V1ozlMfIuVR3TN5RS1_V-129" value="Asynchronous help request&lt;div&gt;from humans&lt;/div&gt;" style="rounded=0;whiteSpace=wrap;html=1;" parent="V1ozlMfIuVR3TN5RS1_V-75" vertex="1">
          <mxGeometry x="76" y="590" width="190" height="60" as="geometry" />
        </mxCell>
        <mxCell id="SHSk5P-QJPTtU_y_XVn0-76" value="Call the right operator to get help" style="rounded=0;whiteSpace=wrap;html=1;" vertex="1" parent="V1ozlMfIuVR3TN5RS1_V-75">
          <mxGeometry x="140" y="3225" width="140" height="60" as="geometry" />
        </mxCell>
        <mxCell id="V1ozlMfIuVR3TN5RS1_V-81" value="Vision Module" style="swimlane;whiteSpace=wrap;movable=1;resizable=1;rotatable=1;deletable=1;editable=1;locked=0;connectable=1;startSize=42;fontSize=20;" parent="1" vertex="1">
          <mxGeometry x="960" y="120" width="470" height="4840" as="geometry" />
        </mxCell>
        <mxCell id="BWeqHSv0tAE4ggof8cTD-11" value="Is the area&lt;div&gt;safe for humans&lt;/div&gt;&lt;div&gt;AND&lt;/div&gt;&lt;div&gt;obstacle free?&lt;/div&gt;" style="strokeWidth=2;html=1;shape=mxgraph.flowchart.decision;whiteSpace=wrap;" parent="V1ozlMfIuVR3TN5RS1_V-81" vertex="1">
          <mxGeometry x="90" y="1840" width="130" height="130" as="geometry" />
        </mxCell>
        <mxCell id="umM-WVGlUsLBDjnBn852-2" value="No" style="text;html=1;align=center;verticalAlign=middle;whiteSpace=wrap;rounded=0;" parent="V1ozlMfIuVR3TN5RS1_V-81" vertex="1">
          <mxGeometry x="209" y="1880" width="60" height="30" as="geometry" />
        </mxCell>
        <mxCell id="SHSk5P-QJPTtU_y_XVn0-3" value="Yes" style="text;html=1;align=center;verticalAlign=middle;whiteSpace=wrap;rounded=0;" vertex="1" parent="V1ozlMfIuVR3TN5RS1_V-81">
          <mxGeometry x="40" y="1880" width="60" height="30" as="geometry" />
        </mxCell>
        <mxCell id="SHSk5P-QJPTtU_y_XVn0-116" value="" style="edgeStyle=orthogonalEdgeStyle;rounded=0;orthogonalLoop=1;jettySize=auto;html=1;" edge="1" parent="V1ozlMfIuVR3TN5RS1_V-81" source="SHSk5P-QJPTtU_y_XVn0-115" target="BWeqHSv0tAE4ggof8cTD-11">
          <mxGeometry relative="1" as="geometry" />
        </mxCell>
        <mxCell id="SHSk5P-QJPTtU_y_XVn0-115" value="" style="ellipse;whiteSpace=wrap;html=1;aspect=fixed;" vertex="1" parent="V1ozlMfIuVR3TN5RS1_V-81">
          <mxGeometry x="138" y="1750" width="34" height="34" as="geometry" />
        </mxCell>
        <mxCell id="V1ozlMfIuVR3TN5RS1_V-87" value="Decision Making System" style="swimlane;whiteSpace=wrap;movable=0;resizable=0;rotatable=0;deletable=0;editable=0;locked=1;connectable=0;startSize=42;fontSize=20;" parent="1" vertex="1">
          <mxGeometry x="1430" y="120" width="500" height="4840" as="geometry" />
        </mxCell>
        <mxCell id="V1ozlMfIuVR3TN5RS1_V-88" value="Cloud Module" style="swimlane;whiteSpace=wrap;movable=1;resizable=1;rotatable=1;deletable=1;editable=1;locked=0;connectable=1;startSize=42;fontSize=20;" parent="1" vertex="1">
          <mxGeometry x="2180" y="120" width="300" height="4840" as="geometry" />
        </mxCell>
        <mxCell id="V1ozlMfIuVR3TN5RS1_V-101" value="Save sensor&#39;s log" style="rounded=0;whiteSpace=wrap;html=1;" parent="V1ozlMfIuVR3TN5RS1_V-88" vertex="1">
          <mxGeometry x="80" y="310" width="120" height="60" as="geometry" />
        </mxCell>
        <mxCell id="V1ozlMfIuVR3TN5RS1_V-116" value="Download data from&amp;nbsp;&lt;span style=&quot;background-color: initial;&quot;&gt;cloud&lt;/span&gt;" style="rounded=0;whiteSpace=wrap;html=1;" parent="V1ozlMfIuVR3TN5RS1_V-88" vertex="1">
          <mxGeometry x="60" y="450" width="160" height="60" as="geometry" />
        </mxCell>
        <mxCell id="V1ozlMfIuVR3TN5RS1_V-171" value="Error log&#39;s&lt;div&gt;&quot;Missing components&quot;&lt;/div&gt;" style="rounded=0;whiteSpace=wrap;html=1;" parent="V1ozlMfIuVR3TN5RS1_V-88" vertex="1">
          <mxGeometry x="70" y="1525" width="140" height="60" as="geometry" />
        </mxCell>
        <mxCell id="V1ozlMfIuVR3TN5RS1_V-89" value="Tactile Module" style="swimlane;whiteSpace=wrap;movable=1;resizable=1;rotatable=1;deletable=1;editable=1;locked=0;connectable=1;startSize=42;fontSize=20;" parent="1" vertex="1">
          <mxGeometry x="310" y="120" width="320" height="4840" as="geometry" />
        </mxCell>
        <mxCell id="SHSk5P-QJPTtU_y_XVn0-21" value="Is grabbed?" style="strokeWidth=2;html=1;shape=mxgraph.flowchart.decision;whiteSpace=wrap;" vertex="1" parent="V1ozlMfIuVR3TN5RS1_V-89">
          <mxGeometry x="105" y="2210" width="100" height="100" as="geometry" />
        </mxCell>
        <mxCell id="SHSk5P-QJPTtU_y_XVn0-43" value="Grab it/Use it" style="rounded=0;whiteSpace=wrap;html=1;" vertex="1" parent="V1ozlMfIuVR3TN5RS1_V-89">
          <mxGeometry x="94" y="2730" width="140" height="60" as="geometry" />
        </mxCell>
        <mxCell id="SHSk5P-QJPTtU_y_XVn0-24" value="No" style="text;html=1;align=center;verticalAlign=middle;whiteSpace=wrap;rounded=0;" vertex="1" parent="V1ozlMfIuVR3TN5RS1_V-89">
          <mxGeometry x="200" y="2230" width="60" height="30" as="geometry" />
        </mxCell>
        <mxCell id="SHSk5P-QJPTtU_y_XVn0-27" value="Yes" style="text;html=1;align=center;verticalAlign=middle;whiteSpace=wrap;rounded=0;" vertex="1" parent="V1ozlMfIuVR3TN5RS1_V-89">
          <mxGeometry x="155" y="2300" width="60" height="30" as="geometry" />
        </mxCell>
        <mxCell id="SHSk5P-QJPTtU_y_XVn0-86" value="Listen the real-time instructions" style="rounded=0;whiteSpace=wrap;html=1;" vertex="1" parent="V1ozlMfIuVR3TN5RS1_V-89">
          <mxGeometry x="90" y="3790" width="195" height="60" as="geometry" />
        </mxCell>
        <mxCell id="V1ozlMfIuVR3TN5RS1_V-91" value="Sensor Module" style="swimlane;whiteSpace=wrap;movable=1;resizable=1;rotatable=1;deletable=1;editable=1;locked=0;connectable=1;startSize=42;fontSize=20;" parent="1" vertex="1">
          <mxGeometry x="1930" y="120" width="250" height="4840" as="geometry" />
        </mxCell>
        <mxCell id="V1ozlMfIuVR3TN5RS1_V-92" value="Motion Control" style="swimlane;whiteSpace=wrap;movable=1;resizable=1;rotatable=1;deletable=1;editable=1;locked=0;connectable=1;startSize=42;fontSize=20;" parent="1" vertex="1">
          <mxGeometry x="50" y="120" width="260" height="4840" as="geometry" />
        </mxCell>
        <mxCell id="V1ozlMfIuVR3TN5RS1_V-155" value="Goal position&lt;div&gt;reached?&lt;/div&gt;" style="strokeWidth=2;html=1;shape=mxgraph.flowchart.decision;whiteSpace=wrap;" parent="V1ozlMfIuVR3TN5RS1_V-92" vertex="1">
          <mxGeometry x="86" y="1310" width="100" height="100" as="geometry" />
        </mxCell>
        <mxCell id="V1ozlMfIuVR3TN5RS1_V-156" value="Execute Motion" style="rounded=0;whiteSpace=wrap;html=1;" parent="V1ozlMfIuVR3TN5RS1_V-92" vertex="1">
          <mxGeometry x="76" y="1210" width="120" height="60" as="geometry" />
        </mxCell>
        <mxCell id="V1ozlMfIuVR3TN5RS1_V-157" style="edgeStyle=orthogonalEdgeStyle;rounded=0;orthogonalLoop=1;jettySize=auto;html=1;exitX=0.5;exitY=1;exitDx=0;exitDy=0;entryX=0.5;entryY=0;entryDx=0;entryDy=0;entryPerimeter=0;" parent="V1ozlMfIuVR3TN5RS1_V-92" source="V1ozlMfIuVR3TN5RS1_V-156" target="V1ozlMfIuVR3TN5RS1_V-155" edge="1">
          <mxGeometry relative="1" as="geometry" />
        </mxCell>
        <mxCell id="V1ozlMfIuVR3TN5RS1_V-159" value="No" style="text;html=1;align=center;verticalAlign=middle;whiteSpace=wrap;rounded=0;" parent="V1ozlMfIuVR3TN5RS1_V-92" vertex="1">
          <mxGeometry x="40" y="1335" width="60" height="30" as="geometry" />
        </mxCell>
        <mxCell id="V1ozlMfIuVR3TN5RS1_V-162" value="Yes" style="text;html=1;align=center;verticalAlign=middle;whiteSpace=wrap;rounded=0;" parent="V1ozlMfIuVR3TN5RS1_V-92" vertex="1">
          <mxGeometry x="126" y="1400" width="60" height="30" as="geometry" />
        </mxCell>
        <mxCell id="SHSk5P-QJPTtU_y_XVn0-11" value="Execute Motion" style="rounded=0;whiteSpace=wrap;html=1;" vertex="1" parent="V1ozlMfIuVR3TN5RS1_V-92">
          <mxGeometry x="66" y="1875" width="120" height="60" as="geometry" />
        </mxCell>
        <mxCell id="SHSk5P-QJPTtU_y_XVn0-13" value="Goal position&lt;div&gt;reached?&lt;/div&gt;" style="strokeWidth=2;html=1;shape=mxgraph.flowchart.decision;whiteSpace=wrap;" vertex="1" parent="V1ozlMfIuVR3TN5RS1_V-92">
          <mxGeometry x="76" y="1990" width="100" height="100" as="geometry" />
        </mxCell>
        <mxCell id="SHSk5P-QJPTtU_y_XVn0-14" style="edgeStyle=orthogonalEdgeStyle;rounded=0;orthogonalLoop=1;jettySize=auto;html=1;exitX=0.5;exitY=1;exitDx=0;exitDy=0;entryX=0.5;entryY=0;entryDx=0;entryDy=0;entryPerimeter=0;" edge="1" parent="V1ozlMfIuVR3TN5RS1_V-92" source="SHSk5P-QJPTtU_y_XVn0-11" target="SHSk5P-QJPTtU_y_XVn0-13">
          <mxGeometry relative="1" as="geometry" />
        </mxCell>
        <mxCell id="SHSk5P-QJPTtU_y_XVn0-16" value="No" style="text;html=1;align=center;verticalAlign=middle;whiteSpace=wrap;rounded=0;" vertex="1" parent="V1ozlMfIuVR3TN5RS1_V-92">
          <mxGeometry x="30" y="2010" width="60" height="30" as="geometry" />
        </mxCell>
        <mxCell id="SHSk5P-QJPTtU_y_XVn0-20" value="Yes" style="text;html=1;align=center;verticalAlign=middle;whiteSpace=wrap;rounded=0;" vertex="1" parent="V1ozlMfIuVR3TN5RS1_V-92">
          <mxGeometry x="116" y="2090" width="60" height="30" as="geometry" />
        </mxCell>
        <mxCell id="V1ozlMfIuVR3TN5RS1_V-97" style="edgeStyle=orthogonalEdgeStyle;rounded=0;orthogonalLoop=1;jettySize=auto;html=1;exitX=1;exitY=0.5;exitDx=0;exitDy=0;entryX=0;entryY=0.5;entryDx=0;entryDy=0;" parent="1" source="V1ozlMfIuVR3TN5RS1_V-93" target="V1ozlMfIuVR3TN5RS1_V-96" edge="1">
          <mxGeometry relative="1" as="geometry" />
        </mxCell>
        <mxCell id="V1ozlMfIuVR3TN5RS1_V-93" value="Initialize Robot" style="rounded=0;whiteSpace=wrap;html=1;" parent="1" vertex="1">
          <mxGeometry x="1620" y="280" width="120" height="60" as="geometry" />
        </mxCell>
        <mxCell id="V1ozlMfIuVR3TN5RS1_V-95" value="" style="edgeStyle=orthogonalEdgeStyle;rounded=0;orthogonalLoop=1;jettySize=auto;html=1;" parent="1" source="V1ozlMfIuVR3TN5RS1_V-94" target="V1ozlMfIuVR3TN5RS1_V-93" edge="1">
          <mxGeometry relative="1" as="geometry" />
        </mxCell>
        <mxCell id="V1ozlMfIuVR3TN5RS1_V-94" value="START" style="strokeWidth=2;html=1;shape=mxgraph.flowchart.start_1;whiteSpace=wrap;fillColor=#d5e8d4;strokeColor=#82b366;" parent="1" vertex="1">
          <mxGeometry x="1645" y="180" width="70" height="40" as="geometry" />
        </mxCell>
        <mxCell id="V1ozlMfIuVR3TN5RS1_V-96" value="Check sensor&lt;div&gt;every certain time&lt;/div&gt;" style="rounded=0;whiteSpace=wrap;html=1;" parent="1" vertex="1">
          <mxGeometry x="1990" y="280" width="120" height="60" as="geometry" />
        </mxCell>
        <mxCell id="V1ozlMfIuVR3TN5RS1_V-102" style="edgeStyle=orthogonalEdgeStyle;rounded=0;orthogonalLoop=1;jettySize=auto;html=1;exitX=1;exitY=0.5;exitDx=0;exitDy=0;exitPerimeter=0;entryX=0;entryY=0.5;entryDx=0;entryDy=0;" parent="1" source="V1ozlMfIuVR3TN5RS1_V-98" target="V1ozlMfIuVR3TN5RS1_V-101" edge="1">
          <mxGeometry relative="1" as="geometry" />
        </mxCell>
        <mxCell id="V1ozlMfIuVR3TN5RS1_V-117" style="edgeStyle=orthogonalEdgeStyle;rounded=0;orthogonalLoop=1;jettySize=auto;html=1;exitX=0.5;exitY=1;exitDx=0;exitDy=0;exitPerimeter=0;entryX=0.5;entryY=0;entryDx=0;entryDy=0;" parent="1" source="V1ozlMfIuVR3TN5RS1_V-98" target="V1ozlMfIuVR3TN5RS1_V-116" edge="1">
          <mxGeometry relative="1" as="geometry">
            <mxPoint x="2480" y="570" as="targetPoint" />
          </mxGeometry>
        </mxCell>
        <mxCell id="V1ozlMfIuVR3TN5RS1_V-98" value="Are sensor&#39;s status good?" style="strokeWidth=2;html=1;shape=mxgraph.flowchart.decision;whiteSpace=wrap;" parent="1" vertex="1">
          <mxGeometry x="1630" y="410" width="100" height="100" as="geometry" />
        </mxCell>
        <mxCell id="V1ozlMfIuVR3TN5RS1_V-99" style="edgeStyle=orthogonalEdgeStyle;rounded=0;orthogonalLoop=1;jettySize=auto;html=1;entryX=0.5;entryY=0;entryDx=0;entryDy=0;entryPerimeter=0;" parent="1" source="V1ozlMfIuVR3TN5RS1_V-96" target="V1ozlMfIuVR3TN5RS1_V-98" edge="1">
          <mxGeometry relative="1" as="geometry">
            <Array as="points">
              <mxPoint x="2140" y="310" />
              <mxPoint x="2140" y="370" />
              <mxPoint x="1680" y="370" />
            </Array>
          </mxGeometry>
        </mxCell>
        <mxCell id="V1ozlMfIuVR3TN5RS1_V-103" value="No" style="text;html=1;align=center;verticalAlign=middle;whiteSpace=wrap;rounded=0;" parent="1" vertex="1">
          <mxGeometry x="1718" y="424" width="60" height="30" as="geometry" />
        </mxCell>
        <mxCell id="V1ozlMfIuVR3TN5RS1_V-104" value="Yes" style="text;html=1;align=center;verticalAlign=middle;whiteSpace=wrap;rounded=0;" parent="1" vertex="1">
          <mxGeometry x="1670" y="510" width="60" height="30" as="geometry" />
        </mxCell>
        <mxCell id="V1ozlMfIuVR3TN5RS1_V-105" style="edgeStyle=orthogonalEdgeStyle;rounded=0;orthogonalLoop=1;jettySize=auto;html=1;entryX=1;entryY=0.5;entryDx=0;entryDy=0;exitX=0.5;exitY=1;exitDx=0;exitDy=0;" parent="1" source="V1ozlMfIuVR3TN5RS1_V-101" target="SHSk5P-QJPTtU_y_XVn0-30" edge="1">
          <mxGeometry relative="1" as="geometry">
            <mxPoint x="1850" y="870" as="targetPoint" />
            <Array as="points">
              <mxPoint x="2320" y="520" />
              <mxPoint x="2430" y="520" />
              <mxPoint x="2430" y="870" />
            </Array>
            <mxPoint x="2450" y="490" as="sourcePoint" />
          </mxGeometry>
        </mxCell>
        <mxCell id="V1ozlMfIuVR3TN5RS1_V-119" style="edgeStyle=orthogonalEdgeStyle;rounded=0;orthogonalLoop=1;jettySize=auto;html=1;exitX=0.5;exitY=1;exitDx=0;exitDy=0;entryX=0.5;entryY=0;entryDx=0;entryDy=0;entryPerimeter=0;" parent="1" source="V1ozlMfIuVR3TN5RS1_V-116" target="V1ozlMfIuVR3TN5RS1_V-120" edge="1">
          <mxGeometry relative="1" as="geometry">
            <mxPoint x="1680" y="680" as="targetPoint" />
          </mxGeometry>
        </mxCell>
        <mxCell id="V1ozlMfIuVR3TN5RS1_V-134" style="edgeStyle=orthogonalEdgeStyle;rounded=0;orthogonalLoop=1;jettySize=auto;html=1;exitX=0.5;exitY=1;exitDx=0;exitDy=0;exitPerimeter=0;entryX=0.5;entryY=0;entryDx=0;entryDy=0;entryPerimeter=0;" parent="1" source="V1ozlMfIuVR3TN5RS1_V-120" target="V1ozlMfIuVR3TN5RS1_V-146" edge="1">
          <mxGeometry relative="1" as="geometry">
            <mxPoint x="1560" y="850" as="targetPoint" />
          </mxGeometry>
        </mxCell>
        <mxCell id="V1ozlMfIuVR3TN5RS1_V-120" value="Are there tasks&lt;div&gt;to be executed?&lt;/div&gt;" style="strokeWidth=2;html=1;shape=mxgraph.flowchart.decision;whiteSpace=wrap;" parent="1" vertex="1">
          <mxGeometry x="1500" y="680" width="120" height="120" as="geometry" />
        </mxCell>
        <mxCell id="SHSk5P-QJPTtU_y_XVn0-31" value="" style="edgeStyle=orthogonalEdgeStyle;rounded=0;orthogonalLoop=1;jettySize=auto;html=1;" edge="1" parent="1" source="V1ozlMfIuVR3TN5RS1_V-121" target="SHSk5P-QJPTtU_y_XVn0-30">
          <mxGeometry relative="1" as="geometry" />
        </mxCell>
        <mxCell id="SHSk5P-QJPTtU_y_XVn0-110" style="edgeStyle=orthogonalEdgeStyle;rounded=0;orthogonalLoop=1;jettySize=auto;html=1;exitX=1;exitY=0.5;exitDx=0;exitDy=0;entryX=0.5;entryY=0;entryDx=0;entryDy=0;" edge="1" parent="1" source="V1ozlMfIuVR3TN5RS1_V-121" target="V1ozlMfIuVR3TN5RS1_V-129">
          <mxGeometry relative="1" as="geometry">
            <Array as="points">
              <mxPoint x="1910" y="744" />
              <mxPoint x="1910" y="606" />
              <mxPoint x="801" y="606" />
            </Array>
          </mxGeometry>
        </mxCell>
        <mxCell id="V1ozlMfIuVR3TN5RS1_V-121" value="Waiting to help&lt;div&gt;humans in their work&lt;/div&gt;" style="rounded=0;whiteSpace=wrap;html=1;" parent="1" vertex="1">
          <mxGeometry x="1770" y="714" width="120" height="60" as="geometry" />
        </mxCell>
        <mxCell id="V1ozlMfIuVR3TN5RS1_V-124" value="No" style="text;html=1;align=center;verticalAlign=middle;whiteSpace=wrap;rounded=0;" parent="1" vertex="1">
          <mxGeometry x="1603" y="714" width="60" height="30" as="geometry" />
        </mxCell>
        <mxCell id="V1ozlMfIuVR3TN5RS1_V-125" style="edgeStyle=orthogonalEdgeStyle;rounded=0;orthogonalLoop=1;jettySize=auto;html=1;exitX=1;exitY=0.5;exitDx=0;exitDy=0;exitPerimeter=0;entryX=-0.016;entryY=0.431;entryDx=0;entryDy=0;entryPerimeter=0;" parent="1" source="V1ozlMfIuVR3TN5RS1_V-120" target="V1ozlMfIuVR3TN5RS1_V-121" edge="1">
          <mxGeometry relative="1" as="geometry" />
        </mxCell>
        <mxCell id="V1ozlMfIuVR3TN5RS1_V-128" value="After 1 hour of inactivity" style="text;html=1;align=center;verticalAlign=middle;whiteSpace=wrap;rounded=0;" parent="1" vertex="1">
          <mxGeometry x="1830" y="796" width="60" height="30" as="geometry" />
        </mxCell>
        <mxCell id="V1ozlMfIuVR3TN5RS1_V-138" value="" style="edgeStyle=orthogonalEdgeStyle;rounded=0;orthogonalLoop=1;jettySize=auto;html=1;exitX=0.5;exitY=1;exitDx=0;exitDy=0;exitPerimeter=0;" parent="1" source="V1ozlMfIuVR3TN5RS1_V-146" target="V1ozlMfIuVR3TN5RS1_V-137" edge="1">
          <mxGeometry relative="1" as="geometry">
            <mxPoint x="1560" y="910" as="sourcePoint" />
          </mxGeometry>
        </mxCell>
        <mxCell id="V1ozlMfIuVR3TN5RS1_V-141" style="edgeStyle=orthogonalEdgeStyle;rounded=0;orthogonalLoop=1;jettySize=auto;html=1;exitX=1;exitY=0.5;exitDx=0;exitDy=0;exitPerimeter=0;entryX=0.5;entryY=1;entryDx=0;entryDy=0;" parent="1" source="V1ozlMfIuVR3TN5RS1_V-135" target="V1ozlMfIuVR3TN5RS1_V-137" edge="1">
          <mxGeometry relative="1" as="geometry" />
        </mxCell>
        <mxCell id="V1ozlMfIuVR3TN5RS1_V-153" style="edgeStyle=orthogonalEdgeStyle;rounded=0;orthogonalLoop=1;jettySize=auto;html=1;exitX=0.5;exitY=1;exitDx=0;exitDy=0;exitPerimeter=0;entryX=0.5;entryY=0;entryDx=0;entryDy=0;" parent="1" source="V1ozlMfIuVR3TN5RS1_V-135" target="V1ozlMfIuVR3TN5RS1_V-156" edge="1">
          <mxGeometry relative="1" as="geometry">
            <mxPoint x="-320" y="1300" as="targetPoint" />
          </mxGeometry>
        </mxCell>
        <mxCell id="V1ozlMfIuVR3TN5RS1_V-135" value="Is the area&lt;div&gt;safe for humans&lt;/div&gt;&lt;div&gt;AND&lt;/div&gt;&lt;div&gt;obstacle free?&lt;/div&gt;" style="strokeWidth=2;html=1;shape=mxgraph.flowchart.decision;whiteSpace=wrap;" parent="1" vertex="1">
          <mxGeometry x="1097.5" y="1119" width="140" height="120" as="geometry" />
        </mxCell>
        <mxCell id="V1ozlMfIuVR3TN5RS1_V-137" value="Positioning at the warehouse&lt;div&gt;finding a human safe path&lt;/div&gt;" style="rounded=0;whiteSpace=wrap;html=1;" parent="1" vertex="1">
          <mxGeometry x="1475" y="1069" width="170" height="60" as="geometry" />
        </mxCell>
        <mxCell id="V1ozlMfIuVR3TN5RS1_V-140" style="edgeStyle=orthogonalEdgeStyle;rounded=0;orthogonalLoop=1;jettySize=auto;html=1;exitX=0;exitY=0.5;exitDx=0;exitDy=0;entryX=0.5;entryY=0;entryDx=0;entryDy=0;entryPerimeter=0;" parent="1" source="V1ozlMfIuVR3TN5RS1_V-137" target="V1ozlMfIuVR3TN5RS1_V-135" edge="1">
          <mxGeometry relative="1" as="geometry" />
        </mxCell>
        <mxCell id="V1ozlMfIuVR3TN5RS1_V-142" value="No" style="text;html=1;align=center;verticalAlign=middle;whiteSpace=wrap;rounded=0;" parent="1" vertex="1">
          <mxGeometry x="1214" y="1155" width="60" height="30" as="geometry" />
        </mxCell>
        <mxCell id="V1ozlMfIuVR3TN5RS1_V-144" value="Yes" style="text;html=1;align=center;verticalAlign=middle;whiteSpace=wrap;rounded=0;" parent="1" vertex="1">
          <mxGeometry x="1543" y="796" width="60" height="30" as="geometry" />
        </mxCell>
        <mxCell id="V1ozlMfIuVR3TN5RS1_V-145" style="edgeStyle=orthogonalEdgeStyle;rounded=0;orthogonalLoop=1;jettySize=auto;html=1;exitX=1;exitY=0.5;exitDx=0;exitDy=0;entryX=0;entryY=0.5;entryDx=0;entryDy=0;entryPerimeter=0;" parent="1" source="V1ozlMfIuVR3TN5RS1_V-129" target="V1ozlMfIuVR3TN5RS1_V-120" edge="1">
          <mxGeometry relative="1" as="geometry" />
        </mxCell>
        <mxCell id="V1ozlMfIuVR3TN5RS1_V-149" style="edgeStyle=orthogonalEdgeStyle;rounded=0;orthogonalLoop=1;jettySize=auto;html=1;exitX=1;exitY=0.5;exitDx=0;exitDy=0;exitPerimeter=0;entryX=0.5;entryY=0;entryDx=0;entryDy=0;" parent="1" source="V1ozlMfIuVR3TN5RS1_V-146" target="V1ozlMfIuVR3TN5RS1_V-148" edge="1">
          <mxGeometry relative="1" as="geometry" />
        </mxCell>
        <mxCell id="V1ozlMfIuVR3TN5RS1_V-146" value="Are the tasks&lt;div&gt;requested by&lt;/div&gt;&lt;div&gt;humans?&lt;/div&gt;" style="strokeWidth=2;html=1;shape=mxgraph.flowchart.decision;whiteSpace=wrap;" parent="1" vertex="1">
          <mxGeometry x="1490" y="860" width="140" height="130" as="geometry" />
        </mxCell>
        <mxCell id="V1ozlMfIuVR3TN5RS1_V-147" value="Yes" style="text;html=1;align=center;verticalAlign=middle;whiteSpace=wrap;rounded=0;" parent="1" vertex="1">
          <mxGeometry x="1620" y="900" width="60" height="30" as="geometry" />
        </mxCell>
        <mxCell id="SHSk5P-QJPTtU_y_XVn0-111" style="edgeStyle=orthogonalEdgeStyle;rounded=0;orthogonalLoop=1;jettySize=auto;html=1;exitX=0.5;exitY=1;exitDx=0;exitDy=0;" edge="1" parent="1" source="V1ozlMfIuVR3TN5RS1_V-148" target="SHSk5P-QJPTtU_y_XVn0-112">
          <mxGeometry relative="1" as="geometry">
            <mxPoint x="1550" y="3449" as="targetPoint" />
            <mxPoint x="1735" y="1031" as="sourcePoint" />
            <Array as="points">
              <mxPoint x="1735" y="1094" />
              <mxPoint x="1700" y="1094" />
              <mxPoint x="1700" y="2505" />
              <mxPoint x="1550" y="2505" />
            </Array>
          </mxGeometry>
        </mxCell>
        <mxCell id="V1ozlMfIuVR3TN5RS1_V-148" value="Elaborate the new&lt;div&gt;sequence to do&lt;/div&gt;" style="rounded=0;whiteSpace=wrap;html=1;" parent="1" vertex="1">
          <mxGeometry x="1675" y="990" width="120" height="60" as="geometry" />
        </mxCell>
        <mxCell id="V1ozlMfIuVR3TN5RS1_V-150" value="No" style="text;html=1;align=center;verticalAlign=middle;whiteSpace=wrap;rounded=0;" parent="1" vertex="1">
          <mxGeometry x="1543" y="990" width="60" height="30" as="geometry" />
        </mxCell>
        <mxCell id="V1ozlMfIuVR3TN5RS1_V-152" value="Yes" style="text;html=1;align=center;verticalAlign=middle;whiteSpace=wrap;rounded=0;" parent="1" vertex="1">
          <mxGeometry x="1154" y="1239" width="60" height="30" as="geometry" />
        </mxCell>
        <mxCell id="V1ozlMfIuVR3TN5RS1_V-160" style="edgeStyle=orthogonalEdgeStyle;rounded=0;orthogonalLoop=1;jettySize=auto;html=1;exitX=0.5;exitY=1;exitDx=0;exitDy=0;exitPerimeter=0;entryX=0;entryY=0.5;entryDx=0;entryDy=0;" parent="1" source="V1ozlMfIuVR3TN5RS1_V-155" target="V1ozlMfIuVR3TN5RS1_V-161" edge="1">
          <mxGeometry relative="1" as="geometry">
            <mxPoint x="1500" y="1560" as="targetPoint" />
          </mxGeometry>
        </mxCell>
        <mxCell id="V1ozlMfIuVR3TN5RS1_V-158" style="edgeStyle=orthogonalEdgeStyle;rounded=0;orthogonalLoop=1;jettySize=auto;html=1;exitX=0;exitY=0.5;exitDx=0;exitDy=0;exitPerimeter=0;entryX=0;entryY=0.5;entryDx=0;entryDy=0;entryPerimeter=0;" parent="1" source="V1ozlMfIuVR3TN5RS1_V-155" target="V1ozlMfIuVR3TN5RS1_V-135" edge="1">
          <mxGeometry relative="1" as="geometry">
            <Array as="points">
              <mxPoint x="80" y="1480" />
              <mxPoint x="80" y="1179" />
            </Array>
          </mxGeometry>
        </mxCell>
        <mxCell id="V1ozlMfIuVR3TN5RS1_V-161" value="Identify necessary&lt;div&gt;components&lt;/div&gt;" style="rounded=0;whiteSpace=wrap;html=1;" parent="1" vertex="1">
          <mxGeometry x="1500" y="1520" width="120" height="60" as="geometry" />
        </mxCell>
        <mxCell id="V1ozlMfIuVR3TN5RS1_V-168" style="edgeStyle=orthogonalEdgeStyle;rounded=0;orthogonalLoop=1;jettySize=auto;html=1;exitX=1;exitY=0.5;exitDx=0;exitDy=0;exitPerimeter=0;entryX=0;entryY=0.5;entryDx=0;entryDy=0;" parent="1" source="V1ozlMfIuVR3TN5RS1_V-164" target="V1ozlMfIuVR3TN5RS1_V-167" edge="1">
          <mxGeometry relative="1" as="geometry" />
        </mxCell>
        <mxCell id="BWeqHSv0tAE4ggof8cTD-3" style="edgeStyle=orthogonalEdgeStyle;rounded=0;orthogonalLoop=1;jettySize=auto;html=1;exitX=0.5;exitY=1;exitDx=0;exitDy=0;exitPerimeter=0;entryX=0.5;entryY=0;entryDx=0;entryDy=0;" parent="1" source="V1ozlMfIuVR3TN5RS1_V-164" target="BWeqHSv0tAE4ggof8cTD-8" edge="1">
          <mxGeometry relative="1" as="geometry">
            <mxPoint x="1170" y="1850" as="targetPoint" />
          </mxGeometry>
        </mxCell>
        <mxCell id="V1ozlMfIuVR3TN5RS1_V-164" value="Are there necessary&lt;div&gt;components?&lt;/div&gt;" style="strokeWidth=2;html=1;shape=mxgraph.flowchart.decision;whiteSpace=wrap;" parent="1" vertex="1">
          <mxGeometry x="1097.5" y="1620" width="145" height="110" as="geometry" />
        </mxCell>
        <mxCell id="V1ozlMfIuVR3TN5RS1_V-166" style="edgeStyle=orthogonalEdgeStyle;rounded=0;orthogonalLoop=1;jettySize=auto;html=1;entryX=0.5;entryY=0;entryDx=0;entryDy=0;entryPerimeter=0;" parent="1" source="V1ozlMfIuVR3TN5RS1_V-161" target="V1ozlMfIuVR3TN5RS1_V-164" edge="1">
          <mxGeometry relative="1" as="geometry">
            <Array as="points">
              <mxPoint x="1560" y="1600" />
              <mxPoint x="1170" y="1600" />
            </Array>
          </mxGeometry>
        </mxCell>
        <mxCell id="V1ozlMfIuVR3TN5RS1_V-172" style="edgeStyle=orthogonalEdgeStyle;rounded=0;orthogonalLoop=1;jettySize=auto;html=1;exitX=1;exitY=0.5;exitDx=0;exitDy=0;entryX=0;entryY=0.5;entryDx=0;entryDy=0;" parent="1" source="V1ozlMfIuVR3TN5RS1_V-167" target="V1ozlMfIuVR3TN5RS1_V-171" edge="1">
          <mxGeometry relative="1" as="geometry" />
        </mxCell>
        <mxCell id="V1ozlMfIuVR3TN5RS1_V-167" value="Report to Cloud Module" style="rounded=0;whiteSpace=wrap;html=1;" parent="1" vertex="1">
          <mxGeometry x="1490" y="1645" width="140" height="60" as="geometry" />
        </mxCell>
        <mxCell id="V1ozlMfIuVR3TN5RS1_V-169" value="No" style="text;html=1;align=center;verticalAlign=middle;whiteSpace=wrap;rounded=0;" parent="1" vertex="1">
          <mxGeometry x="1224" y="1652" width="60" height="30" as="geometry" />
        </mxCell>
        <mxCell id="V1ozlMfIuVR3TN5RS1_V-176" style="edgeStyle=orthogonalEdgeStyle;rounded=0;orthogonalLoop=1;jettySize=auto;html=1;exitX=0.5;exitY=1;exitDx=0;exitDy=0;entryX=1;entryY=0.5;entryDx=0;entryDy=0;" parent="1" source="V1ozlMfIuVR3TN5RS1_V-171" target="V1ozlMfIuVR3TN5RS1_V-175" edge="1">
          <mxGeometry relative="1" as="geometry" />
        </mxCell>
        <mxCell id="V1ozlMfIuVR3TN5RS1_V-175" value="Return to the&lt;div&gt;Robot&#39;s base in a safety way&lt;/div&gt;" style="rounded=0;whiteSpace=wrap;html=1;" parent="1" vertex="1">
          <mxGeometry x="1745" y="1770" width="170" height="60" as="geometry" />
        </mxCell>
        <mxCell id="BWeqHSv0tAE4ggof8cTD-2" value="Yes" style="text;html=1;align=center;verticalAlign=middle;whiteSpace=wrap;rounded=0;" parent="1" vertex="1">
          <mxGeometry x="1154" y="1730" width="60" height="30" as="geometry" />
        </mxCell>
        <mxCell id="BWeqHSv0tAE4ggof8cTD-10" style="edgeStyle=orthogonalEdgeStyle;rounded=0;orthogonalLoop=1;jettySize=auto;html=1;exitX=0.5;exitY=1;exitDx=0;exitDy=0;" parent="1" source="BWeqHSv0tAE4ggof8cTD-8" target="BWeqHSv0tAE4ggof8cTD-9" edge="1">
          <mxGeometry relative="1" as="geometry" />
        </mxCell>
        <mxCell id="BWeqHSv0tAE4ggof8cTD-8" value="Choose one of them" style="rounded=0;whiteSpace=wrap;html=1;" parent="1" vertex="1">
          <mxGeometry x="1513" y="1790" width="120" height="60" as="geometry" />
        </mxCell>
        <mxCell id="umM-WVGlUsLBDjnBn852-1" style="edgeStyle=orthogonalEdgeStyle;rounded=0;orthogonalLoop=1;jettySize=auto;html=1;exitX=0;exitY=0.5;exitDx=0;exitDy=0;exitPerimeter=0;entryX=1;entryY=0.5;entryDx=0;entryDy=0;" parent="1" source="BWeqHSv0tAE4ggof8cTD-9" edge="1" target="SHSk5P-QJPTtU_y_XVn0-115">
          <mxGeometry relative="1" as="geometry">
            <mxPoint x="1145" y="1907" as="targetPoint" />
          </mxGeometry>
        </mxCell>
        <mxCell id="SHSk5P-QJPTtU_y_XVn0-8" style="edgeStyle=orthogonalEdgeStyle;rounded=0;orthogonalLoop=1;jettySize=auto;html=1;exitX=0.5;exitY=1;exitDx=0;exitDy=0;exitPerimeter=0;entryX=0.5;entryY=0;entryDx=0;entryDy=0;" edge="1" parent="1" source="BWeqHSv0tAE4ggof8cTD-9" target="SHSk5P-QJPTtU_y_XVn0-18">
          <mxGeometry relative="1" as="geometry">
            <mxPoint x="1300" y="2100" as="targetPoint" />
          </mxGeometry>
        </mxCell>
        <mxCell id="BWeqHSv0tAE4ggof8cTD-9" value="Is reachable?" style="strokeWidth=2;html=1;shape=mxgraph.flowchart.decision;whiteSpace=wrap;" parent="1" vertex="1">
          <mxGeometry x="1250" y="1890" width="100" height="100" as="geometry" />
        </mxCell>
        <mxCell id="SHSk5P-QJPTtU_y_XVn0-2" style="edgeStyle=orthogonalEdgeStyle;rounded=0;orthogonalLoop=1;jettySize=auto;html=1;exitX=1;exitY=0.5;exitDx=0;exitDy=0;exitPerimeter=0;entryX=0;entryY=0.5;entryDx=0;entryDy=0;" edge="1" parent="1" source="BWeqHSv0tAE4ggof8cTD-11" target="SHSk5P-QJPTtU_y_XVn0-1">
          <mxGeometry relative="1" as="geometry" />
        </mxCell>
        <mxCell id="SHSk5P-QJPTtU_y_XVn0-12" style="edgeStyle=orthogonalEdgeStyle;rounded=0;orthogonalLoop=1;jettySize=auto;html=1;exitX=0;exitY=0.5;exitDx=0;exitDy=0;exitPerimeter=0;entryX=1;entryY=0.5;entryDx=0;entryDy=0;" edge="1" parent="1" source="BWeqHSv0tAE4ggof8cTD-11" target="SHSk5P-QJPTtU_y_XVn0-11">
          <mxGeometry relative="1" as="geometry" />
        </mxCell>
        <mxCell id="SHSk5P-QJPTtU_y_XVn0-1" value="Find humans safe path&amp;nbsp;&lt;span style=&quot;background-color: initial;&quot;&gt;to reach it&lt;/span&gt;" style="rounded=0;whiteSpace=wrap;html=1;" vertex="1" parent="1">
          <mxGeometry x="1513" y="1995" width="120" height="60" as="geometry" />
        </mxCell>
        <mxCell id="SHSk5P-QJPTtU_y_XVn0-4" value="No" style="text;html=1;align=center;verticalAlign=middle;whiteSpace=wrap;rounded=0;" vertex="1" parent="1">
          <mxGeometry x="1205" y="1912" width="60" height="30" as="geometry" />
        </mxCell>
        <mxCell id="SHSk5P-QJPTtU_y_XVn0-5" style="edgeStyle=orthogonalEdgeStyle;rounded=0;orthogonalLoop=1;jettySize=auto;html=1;exitX=0.5;exitY=0;exitDx=0;exitDy=0;entryX=1;entryY=0.5;entryDx=0;entryDy=0;entryPerimeter=0;" edge="1" parent="1" source="SHSk5P-QJPTtU_y_XVn0-1" target="BWeqHSv0tAE4ggof8cTD-9">
          <mxGeometry relative="1" as="geometry" />
        </mxCell>
        <mxCell id="SHSk5P-QJPTtU_y_XVn0-9" value="Yes" style="text;html=1;align=center;verticalAlign=middle;whiteSpace=wrap;rounded=0;" vertex="1" parent="1">
          <mxGeometry x="1284" y="1990" width="60" height="30" as="geometry" />
        </mxCell>
        <mxCell id="SHSk5P-QJPTtU_y_XVn0-19" style="edgeStyle=orthogonalEdgeStyle;rounded=0;orthogonalLoop=1;jettySize=auto;html=1;exitX=0.5;exitY=1;exitDx=0;exitDy=0;exitPerimeter=0;entryX=0;entryY=0.5;entryDx=0;entryDy=0;" edge="1" parent="1" source="SHSk5P-QJPTtU_y_XVn0-13" target="SHSk5P-QJPTtU_y_XVn0-18">
          <mxGeometry relative="1" as="geometry" />
        </mxCell>
        <mxCell id="SHSk5P-QJPTtU_y_XVn0-15" style="edgeStyle=orthogonalEdgeStyle;rounded=0;orthogonalLoop=1;jettySize=auto;html=1;exitX=0;exitY=0.5;exitDx=0;exitDy=0;exitPerimeter=0;entryX=0;entryY=0.5;entryDx=0;entryDy=0;" edge="1" parent="1" source="SHSk5P-QJPTtU_y_XVn0-13" target="SHSk5P-QJPTtU_y_XVn0-115">
          <mxGeometry relative="1" as="geometry">
            <mxPoint x="1053" y="1903" as="targetPoint" />
            <Array as="points">
              <mxPoint x="70" y="2160" />
              <mxPoint x="70" y="1940" />
              <mxPoint x="1061" y="1940" />
              <mxPoint x="1061" y="1887" />
            </Array>
          </mxGeometry>
        </mxCell>
        <mxCell id="SHSk5P-QJPTtU_y_XVn0-18" value="Grab it" style="rounded=0;whiteSpace=wrap;html=1;" vertex="1" parent="1">
          <mxGeometry x="1240" y="2210" width="120" height="60" as="geometry" />
        </mxCell>
        <mxCell id="SHSk5P-QJPTtU_y_XVn0-23" style="edgeStyle=orthogonalEdgeStyle;rounded=0;orthogonalLoop=1;jettySize=auto;html=1;exitX=1;exitY=0.5;exitDx=0;exitDy=0;exitPerimeter=0;entryX=1;entryY=0.5;entryDx=0;entryDy=0;" edge="1" parent="1" source="SHSk5P-QJPTtU_y_XVn0-21" target="SHSk5P-QJPTtU_y_XVn0-18">
          <mxGeometry relative="1" as="geometry">
            <mxPoint x="300" y="2380" as="targetPoint" />
          </mxGeometry>
        </mxCell>
        <mxCell id="SHSk5P-QJPTtU_y_XVn0-26" style="edgeStyle=orthogonalEdgeStyle;rounded=0;orthogonalLoop=1;jettySize=auto;html=1;exitX=0.5;exitY=1;exitDx=0;exitDy=0;exitPerimeter=0;entryX=0;entryY=0.5;entryDx=0;entryDy=0;" edge="1" parent="1" source="SHSk5P-QJPTtU_y_XVn0-21" target="SHSk5P-QJPTtU_y_XVn0-25">
          <mxGeometry relative="1" as="geometry" />
        </mxCell>
        <mxCell id="SHSk5P-QJPTtU_y_XVn0-22" style="edgeStyle=orthogonalEdgeStyle;rounded=0;orthogonalLoop=1;jettySize=auto;html=1;exitX=0.5;exitY=1;exitDx=0;exitDy=0;entryX=0.5;entryY=0;entryDx=0;entryDy=0;entryPerimeter=0;" edge="1" parent="1" source="SHSk5P-QJPTtU_y_XVn0-18" target="SHSk5P-QJPTtU_y_XVn0-21">
          <mxGeometry relative="1" as="geometry" />
        </mxCell>
        <mxCell id="SHSk5P-QJPTtU_y_XVn0-28" style="edgeStyle=orthogonalEdgeStyle;rounded=0;orthogonalLoop=1;jettySize=auto;html=1;exitX=1;exitY=0.5;exitDx=0;exitDy=0;entryX=0;entryY=0.5;entryDx=0;entryDy=0;entryPerimeter=0;" edge="1" parent="1" source="SHSk5P-QJPTtU_y_XVn0-25" target="SHSk5P-QJPTtU_y_XVn0-35">
          <mxGeometry relative="1" as="geometry">
            <mxPoint x="1719.9999999999995" y="2459.793103448276" as="targetPoint" />
          </mxGeometry>
        </mxCell>
        <mxCell id="SHSk5P-QJPTtU_y_XVn0-25" value="Bring the component to&amp;nbsp;&lt;span style=&quot;background-color: initial;&quot;&gt;the assembly line&lt;/span&gt;&lt;div&gt;using a safe path&lt;/div&gt;" style="rounded=0;whiteSpace=wrap;html=1;" vertex="1" parent="1">
          <mxGeometry x="1510" y="2430" width="120" height="60" as="geometry" />
        </mxCell>
        <mxCell id="SHSk5P-QJPTtU_y_XVn0-30" value="" style="ellipse;whiteSpace=wrap;html=1;aspect=fixed;" vertex="1" parent="1">
          <mxGeometry x="1820" y="860" width="20" height="20" as="geometry" />
        </mxCell>
        <mxCell id="SHSk5P-QJPTtU_y_XVn0-32" style="edgeStyle=orthogonalEdgeStyle;rounded=0;orthogonalLoop=1;jettySize=auto;html=1;exitX=0.5;exitY=1;exitDx=0;exitDy=0;entryX=0.5;entryY=0;entryDx=0;entryDy=0;" edge="1" parent="1" source="SHSk5P-QJPTtU_y_XVn0-30" target="V1ozlMfIuVR3TN5RS1_V-175">
          <mxGeometry relative="1" as="geometry" />
        </mxCell>
        <mxCell id="SHSk5P-QJPTtU_y_XVn0-33" value="FINISH" style="strokeWidth=2;html=1;shape=mxgraph.flowchart.start_1;whiteSpace=wrap;fillColor=#f8cecc;strokeColor=#b85450;" vertex="1" parent="1">
          <mxGeometry x="1795" y="1890" width="70" height="40" as="geometry" />
        </mxCell>
        <mxCell id="SHSk5P-QJPTtU_y_XVn0-34" style="edgeStyle=orthogonalEdgeStyle;rounded=0;orthogonalLoop=1;jettySize=auto;html=1;exitX=0.5;exitY=1;exitDx=0;exitDy=0;entryX=0.5;entryY=0;entryDx=0;entryDy=0;entryPerimeter=0;" edge="1" parent="1" source="V1ozlMfIuVR3TN5RS1_V-175" target="SHSk5P-QJPTtU_y_XVn0-33">
          <mxGeometry relative="1" as="geometry" />
        </mxCell>
        <mxCell id="SHSk5P-QJPTtU_y_XVn0-37" style="edgeStyle=orthogonalEdgeStyle;rounded=0;orthogonalLoop=1;jettySize=auto;html=1;exitX=0.5;exitY=1;exitDx=0;exitDy=0;exitPerimeter=0;entryX=0.5;entryY=0;entryDx=0;entryDy=0;" edge="1" parent="1" source="SHSk5P-QJPTtU_y_XVn0-35" target="SHSk5P-QJPTtU_y_XVn0-36">
          <mxGeometry relative="1" as="geometry" />
        </mxCell>
        <mxCell id="SHSk5P-QJPTtU_y_XVn0-35" value="Repeat for all&lt;div&gt;necessary components&amp;nbsp;&lt;/div&gt;" style="strokeWidth=2;html=1;shape=mxgraph.flowchart.loop_limit;whiteSpace=wrap;" vertex="1" parent="1">
          <mxGeometry x="1753" y="2430" width="100" height="60" as="geometry" />
        </mxCell>
        <mxCell id="SHSk5P-QJPTtU_y_XVn0-45" value="" style="edgeStyle=orthogonalEdgeStyle;rounded=0;orthogonalLoop=1;jettySize=auto;html=1;" edge="1" parent="1" source="SHSk5P-QJPTtU_y_XVn0-36" target="SHSk5P-QJPTtU_y_XVn0-44">
          <mxGeometry relative="1" as="geometry" />
        </mxCell>
        <mxCell id="SHSk5P-QJPTtU_y_XVn0-36" value="Start door assembly" style="rounded=0;whiteSpace=wrap;html=1;" vertex="1" parent="1">
          <mxGeometry x="1610" y="2550" width="120" height="60" as="geometry" />
        </mxCell>
        <mxCell id="SHSk5P-QJPTtU_y_XVn0-41" style="edgeStyle=orthogonalEdgeStyle;rounded=0;orthogonalLoop=1;jettySize=auto;html=1;exitX=0;exitY=0.5;exitDx=0;exitDy=0;entryX=1;entryY=0.5;entryDx=0;entryDy=0;" edge="1" parent="1" source="SHSk5P-QJPTtU_y_XVn0-38" target="SHSk5P-QJPTtU_y_XVn0-40">
          <mxGeometry relative="1" as="geometry" />
        </mxCell>
        <mxCell id="SHSk5P-QJPTtU_y_XVn0-38" value="Execute tasks&lt;div&gt;in a safety way&lt;/div&gt;" style="rounded=0;whiteSpace=wrap;html=1;" vertex="1" parent="1">
          <mxGeometry x="1600" y="2850" width="140" height="60" as="geometry" />
        </mxCell>
        <mxCell id="SHSk5P-QJPTtU_y_XVn0-42" style="edgeStyle=orthogonalEdgeStyle;rounded=0;orthogonalLoop=1;jettySize=auto;html=1;exitX=0;exitY=0.5;exitDx=0;exitDy=0;entryX=1;entryY=0.5;entryDx=0;entryDy=0;" edge="1" parent="1" source="SHSk5P-QJPTtU_y_XVn0-40" target="SHSk5P-QJPTtU_y_XVn0-43">
          <mxGeometry relative="1" as="geometry">
            <mxPoint x="320" y="2699.545454545454" as="targetPoint" />
          </mxGeometry>
        </mxCell>
        <mxCell id="SHSk5P-QJPTtU_y_XVn0-40" value="Identify tool/assembly area" style="rounded=0;whiteSpace=wrap;html=1;" vertex="1" parent="1">
          <mxGeometry x="1083.75" y="2850" width="172.5" height="60" as="geometry" />
        </mxCell>
        <mxCell id="SHSk5P-QJPTtU_y_XVn0-46" style="edgeStyle=orthogonalEdgeStyle;rounded=0;orthogonalLoop=1;jettySize=auto;html=1;exitX=0.5;exitY=1;exitDx=0;exitDy=0;exitPerimeter=0;entryX=0.5;entryY=0;entryDx=0;entryDy=0;" edge="1" parent="1" source="SHSk5P-QJPTtU_y_XVn0-44" target="SHSk5P-QJPTtU_y_XVn0-38">
          <mxGeometry relative="1" as="geometry" />
        </mxCell>
        <mxCell id="SHSk5P-QJPTtU_y_XVn0-105" style="edgeStyle=orthogonalEdgeStyle;rounded=0;orthogonalLoop=1;jettySize=auto;html=1;exitX=0;exitY=0.5;exitDx=0;exitDy=0;exitPerimeter=0;entryX=0.5;entryY=0;entryDx=0;entryDy=0;" edge="1" parent="1" source="SHSk5P-QJPTtU_y_XVn0-44" target="SHSk5P-QJPTtU_y_XVn0-76">
          <mxGeometry relative="1" as="geometry">
            <Array as="points">
              <mxPoint x="840" y="2720" />
            </Array>
          </mxGeometry>
        </mxCell>
        <mxCell id="SHSk5P-QJPTtU_y_XVn0-44" value="Can the task&lt;div&gt;be perfomed w/o&lt;/div&gt;&lt;div&gt;humans?&lt;/div&gt;" style="strokeWidth=2;html=1;shape=mxgraph.flowchart.decision;whiteSpace=wrap;" vertex="1" parent="1">
          <mxGeometry x="1595" y="2670" width="150" height="100" as="geometry" />
        </mxCell>
        <mxCell id="SHSk5P-QJPTtU_y_XVn0-50" value="" style="edgeStyle=orthogonalEdgeStyle;rounded=0;orthogonalLoop=1;jettySize=auto;html=1;" edge="1" parent="1" source="SHSk5P-QJPTtU_y_XVn0-47" target="SHSk5P-QJPTtU_y_XVn0-38">
          <mxGeometry relative="1" as="geometry" />
        </mxCell>
        <mxCell id="SHSk5P-QJPTtU_y_XVn0-54" value="" style="edgeStyle=orthogonalEdgeStyle;rounded=0;orthogonalLoop=1;jettySize=auto;html=1;" edge="1" parent="1" source="SHSk5P-QJPTtU_y_XVn0-47" target="SHSk5P-QJPTtU_y_XVn0-53">
          <mxGeometry relative="1" as="geometry" />
        </mxCell>
        <mxCell id="SHSk5P-QJPTtU_y_XVn0-47" value="Is the task complete?" style="strokeWidth=2;html=1;shape=mxgraph.flowchart.decision;whiteSpace=wrap;" vertex="1" parent="1">
          <mxGeometry x="1620" y="2980" width="100" height="100" as="geometry" />
        </mxCell>
        <mxCell id="SHSk5P-QJPTtU_y_XVn0-49" style="edgeStyle=orthogonalEdgeStyle;rounded=0;orthogonalLoop=1;jettySize=auto;html=1;exitX=0.5;exitY=1;exitDx=0;exitDy=0;entryX=0;entryY=0.5;entryDx=0;entryDy=0;entryPerimeter=0;" edge="1" parent="1" source="SHSk5P-QJPTtU_y_XVn0-43" target="SHSk5P-QJPTtU_y_XVn0-47">
          <mxGeometry relative="1" as="geometry" />
        </mxCell>
        <mxCell id="SHSk5P-QJPTtU_y_XVn0-51" value="No" style="text;html=1;align=center;verticalAlign=middle;whiteSpace=wrap;rounded=0;" vertex="1" parent="1">
          <mxGeometry x="1658" y="2950" width="60" height="30" as="geometry" />
        </mxCell>
        <mxCell id="SHSk5P-QJPTtU_y_XVn0-56" style="edgeStyle=orthogonalEdgeStyle;rounded=0;orthogonalLoop=1;jettySize=auto;html=1;exitX=1;exitY=0.5;exitDx=0;exitDy=0;exitPerimeter=0;entryX=1;entryY=0.5;entryDx=0;entryDy=0;" edge="1" parent="1" source="SHSk5P-QJPTtU_y_XVn0-53" target="SHSk5P-QJPTtU_y_XVn0-38">
          <mxGeometry relative="1" as="geometry">
            <Array as="points">
              <mxPoint x="1840" y="3195" />
              <mxPoint x="1840" y="2880" />
            </Array>
          </mxGeometry>
        </mxCell>
        <mxCell id="SHSk5P-QJPTtU_y_XVn0-61" style="edgeStyle=orthogonalEdgeStyle;rounded=0;orthogonalLoop=1;jettySize=auto;html=1;exitX=0.5;exitY=1;exitDx=0;exitDy=0;exitPerimeter=0;entryX=0.5;entryY=0;entryDx=0;entryDy=0;entryPerimeter=0;" edge="1" parent="1" source="SHSk5P-QJPTtU_y_XVn0-53" target="SHSk5P-QJPTtU_y_XVn0-63">
          <mxGeometry relative="1" as="geometry">
            <mxPoint x="1670" y="3304" as="targetPoint" />
          </mxGeometry>
        </mxCell>
        <mxCell id="SHSk5P-QJPTtU_y_XVn0-53" value="Are there&lt;div&gt;remaining task?&lt;/div&gt;" style="strokeWidth=2;html=1;shape=mxgraph.flowchart.decision;whiteSpace=wrap;" vertex="1" parent="1">
          <mxGeometry x="1615" y="3140" width="110" height="110" as="geometry" />
        </mxCell>
        <mxCell id="SHSk5P-QJPTtU_y_XVn0-55" value="No" style="text;html=1;align=center;verticalAlign=middle;whiteSpace=wrap;rounded=0;" vertex="1" parent="1">
          <mxGeometry x="1663" y="3250" width="60" height="30" as="geometry" />
        </mxCell>
        <mxCell id="SHSk5P-QJPTtU_y_XVn0-57" value="Yes" style="text;html=1;align=center;verticalAlign=middle;whiteSpace=wrap;rounded=0;" vertex="1" parent="1">
          <mxGeometry x="1658" y="3080" width="60" height="30" as="geometry" />
        </mxCell>
        <mxCell id="SHSk5P-QJPTtU_y_XVn0-58" value="Yes" style="text;html=1;align=center;verticalAlign=middle;whiteSpace=wrap;rounded=0;" vertex="1" parent="1">
          <mxGeometry x="1710" y="3170" width="60" height="30" as="geometry" />
        </mxCell>
        <mxCell id="SHSk5P-QJPTtU_y_XVn0-59" value="Yes" style="text;html=1;align=center;verticalAlign=middle;whiteSpace=wrap;rounded=0;" vertex="1" parent="1">
          <mxGeometry x="1658" y="2770" width="60" height="30" as="geometry" />
        </mxCell>
        <mxCell id="SHSk5P-QJPTtU_y_XVn0-65" value="" style="edgeStyle=orthogonalEdgeStyle;rounded=0;orthogonalLoop=1;jettySize=auto;html=1;" edge="1" parent="1" source="SHSk5P-QJPTtU_y_XVn0-63" target="SHSk5P-QJPTtU_y_XVn0-64">
          <mxGeometry relative="1" as="geometry" />
        </mxCell>
        <mxCell id="SHSk5P-QJPTtU_y_XVn0-75" style="edgeStyle=orthogonalEdgeStyle;rounded=0;orthogonalLoop=1;jettySize=auto;html=1;entryX=1;entryY=0.5;entryDx=0;entryDy=0;" edge="1" parent="1" source="SHSk5P-QJPTtU_y_XVn0-63" target="SHSk5P-QJPTtU_y_XVn0-76">
          <mxGeometry relative="1" as="geometry">
            <mxPoint x="800" y="3375" as="targetPoint" />
          </mxGeometry>
        </mxCell>
        <mxCell id="SHSk5P-QJPTtU_y_XVn0-63" value="Can the robot lift&lt;div&gt;the door alone?&lt;/div&gt;" style="strokeWidth=2;html=1;shape=mxgraph.flowchart.decision;whiteSpace=wrap;" vertex="1" parent="1">
          <mxGeometry x="1597.5" y="3320" width="145" height="110" as="geometry" />
        </mxCell>
        <mxCell id="SHSk5P-QJPTtU_y_XVn0-73" value="" style="edgeStyle=orthogonalEdgeStyle;rounded=0;orthogonalLoop=1;jettySize=auto;html=1;" edge="1" parent="1" source="SHSk5P-QJPTtU_y_XVn0-64" target="SHSk5P-QJPTtU_y_XVn0-67">
          <mxGeometry relative="1" as="geometry" />
        </mxCell>
        <mxCell id="SHSk5P-QJPTtU_y_XVn0-64" value="Bring the door to the&lt;div&gt;next assembly line&lt;/div&gt;&lt;div&gt;following a human&#39;s safe path&lt;/div&gt;" style="rounded=0;whiteSpace=wrap;html=1;" vertex="1" parent="1">
          <mxGeometry x="1585" y="3520" width="170" height="60" as="geometry" />
        </mxCell>
        <mxCell id="SHSk5P-QJPTtU_y_XVn0-68" value="" style="edgeStyle=orthogonalEdgeStyle;rounded=0;orthogonalLoop=1;jettySize=auto;html=1;entryX=1;entryY=0.5;entryDx=0;entryDy=0;" edge="1" parent="1" source="SHSk5P-QJPTtU_y_XVn0-67" target="SHSk5P-QJPTtU_y_XVn0-97">
          <mxGeometry relative="1" as="geometry">
            <mxPoint x="1670" y="3810" as="targetPoint" />
            <Array as="points">
              <mxPoint x="1670" y="3830" />
              <mxPoint x="1775" y="3830" />
              <mxPoint x="1775" y="4260" />
            </Array>
          </mxGeometry>
        </mxCell>
        <mxCell id="SHSk5P-QJPTtU_y_XVn0-71" value="" style="edgeStyle=orthogonalEdgeStyle;rounded=0;orthogonalLoop=1;jettySize=auto;html=1;" edge="1" parent="1" source="SHSk5P-QJPTtU_y_XVn0-67" target="SHSk5P-QJPTtU_y_XVn0-70">
          <mxGeometry relative="1" as="geometry" />
        </mxCell>
        <mxCell id="SHSk5P-QJPTtU_y_XVn0-67" value="Are there other door&lt;div&gt;to be assembled?&lt;/div&gt;" style="strokeWidth=2;html=1;shape=mxgraph.flowchart.decision;whiteSpace=wrap;" vertex="1" parent="1">
          <mxGeometry x="1597.5" y="3640" width="145" height="110" as="geometry" />
        </mxCell>
        <mxCell id="SHSk5P-QJPTtU_y_XVn0-69" value="No" style="text;html=1;align=center;verticalAlign=middle;whiteSpace=wrap;rounded=0;" vertex="1" parent="1">
          <mxGeometry x="1655" y="3750" width="60" height="30" as="geometry" />
        </mxCell>
        <mxCell id="SHSk5P-QJPTtU_y_XVn0-70" value="Repeat for all&lt;div&gt;doors&amp;nbsp;&lt;/div&gt;" style="strokeWidth=2;html=1;shape=mxgraph.flowchart.loop_limit;whiteSpace=wrap;" vertex="1" parent="1">
          <mxGeometry x="1795" y="3665" width="100" height="60" as="geometry" />
        </mxCell>
        <mxCell id="SHSk5P-QJPTtU_y_XVn0-72" value="Yes" style="text;html=1;align=center;verticalAlign=middle;whiteSpace=wrap;rounded=0;" vertex="1" parent="1">
          <mxGeometry x="1730" y="3670" width="60" height="30" as="geometry" />
        </mxCell>
        <mxCell id="SHSk5P-QJPTtU_y_XVn0-74" value="Yes" style="text;html=1;align=center;verticalAlign=middle;whiteSpace=wrap;rounded=0;" vertex="1" parent="1">
          <mxGeometry x="1658" y="3430" width="60" height="30" as="geometry" />
        </mxCell>
        <mxCell id="SHSk5P-QJPTtU_y_XVn0-83" style="edgeStyle=orthogonalEdgeStyle;rounded=0;orthogonalLoop=1;jettySize=auto;html=1;exitX=0.5;exitY=1;exitDx=0;exitDy=0;exitPerimeter=0;entryX=0;entryY=0.5;entryDx=0;entryDy=0;" edge="1" parent="1" source="SHSk5P-QJPTtU_y_XVn0-77" target="SHSk5P-QJPTtU_y_XVn0-76">
          <mxGeometry relative="1" as="geometry">
            <Array as="points">
              <mxPoint x="1161" y="3550" />
              <mxPoint x="690" y="3550" />
              <mxPoint x="690" y="3375" />
            </Array>
          </mxGeometry>
        </mxCell>
        <mxCell id="SHSk5P-QJPTtU_y_XVn0-113" style="edgeStyle=orthogonalEdgeStyle;rounded=0;orthogonalLoop=1;jettySize=auto;html=1;exitX=1;exitY=0.5;exitDx=0;exitDy=0;exitPerimeter=0;entryX=0;entryY=0.5;entryDx=0;entryDy=0;" edge="1" parent="1" source="SHSk5P-QJPTtU_y_XVn0-77" target="SHSk5P-QJPTtU_y_XVn0-112">
          <mxGeometry relative="1" as="geometry" />
        </mxCell>
        <mxCell id="SHSk5P-QJPTtU_y_XVn0-77" value="is the right operator?" style="strokeWidth=2;html=1;shape=mxgraph.flowchart.decision;whiteSpace=wrap;" vertex="1" parent="1">
          <mxGeometry x="1072.5" y="3410" width="177.5" height="110" as="geometry" />
        </mxCell>
        <mxCell id="SHSk5P-QJPTtU_y_XVn0-78" style="edgeStyle=orthogonalEdgeStyle;rounded=0;orthogonalLoop=1;jettySize=auto;html=1;exitX=0.5;exitY=1;exitDx=0;exitDy=0;entryX=0;entryY=0.5;entryDx=0;entryDy=0;entryPerimeter=0;" edge="1" parent="1" source="SHSk5P-QJPTtU_y_XVn0-76" target="SHSk5P-QJPTtU_y_XVn0-77">
          <mxGeometry relative="1" as="geometry" />
        </mxCell>
        <mxCell id="SHSk5P-QJPTtU_y_XVn0-79" value="No" style="text;html=1;align=center;verticalAlign=middle;whiteSpace=wrap;rounded=0;" vertex="1" parent="1">
          <mxGeometry x="1116" y="3520" width="60" height="30" as="geometry" />
        </mxCell>
        <mxCell id="SHSk5P-QJPTtU_y_XVn0-89" value="" style="edgeStyle=orthogonalEdgeStyle;rounded=0;orthogonalLoop=1;jettySize=auto;html=1;" edge="1" parent="1" source="SHSk5P-QJPTtU_y_XVn0-84" target="SHSk5P-QJPTtU_y_XVn0-88">
          <mxGeometry relative="1" as="geometry" />
        </mxCell>
        <mxCell id="SHSk5P-QJPTtU_y_XVn0-84" value="Perform task with the operator&lt;div&gt;using a safe protocol&lt;/div&gt;" style="rounded=0;whiteSpace=wrap;html=1;" vertex="1" parent="1">
          <mxGeometry x="1465" y="3910" width="170" height="60" as="geometry" />
        </mxCell>
        <mxCell id="SHSk5P-QJPTtU_y_XVn0-87" style="edgeStyle=orthogonalEdgeStyle;rounded=0;orthogonalLoop=1;jettySize=auto;html=1;exitX=1;exitY=0.5;exitDx=0;exitDy=0;entryX=0;entryY=0.5;entryDx=0;entryDy=0;" edge="1" parent="1" source="SHSk5P-QJPTtU_y_XVn0-86" target="SHSk5P-QJPTtU_y_XVn0-84">
          <mxGeometry relative="1" as="geometry" />
        </mxCell>
        <mxCell id="SHSk5P-QJPTtU_y_XVn0-93" value="" style="edgeStyle=orthogonalEdgeStyle;rounded=0;orthogonalLoop=1;jettySize=auto;html=1;entryX=0.5;entryY=0;entryDx=0;entryDy=0;" edge="1" parent="1" source="SHSk5P-QJPTtU_y_XVn0-88" target="SHSk5P-QJPTtU_y_XVn0-97">
          <mxGeometry relative="1" as="geometry">
            <mxPoint x="1550" y="4220" as="targetPoint" />
          </mxGeometry>
        </mxCell>
        <mxCell id="SHSk5P-QJPTtU_y_XVn0-94" style="edgeStyle=orthogonalEdgeStyle;rounded=0;orthogonalLoop=1;jettySize=auto;html=1;exitX=1;exitY=0.5;exitDx=0;exitDy=0;exitPerimeter=0;entryX=1;entryY=0.5;entryDx=0;entryDy=0;" edge="1" parent="1" source="SHSk5P-QJPTtU_y_XVn0-88" target="SHSk5P-QJPTtU_y_XVn0-84">
          <mxGeometry relative="1" as="geometry">
            <Array as="points">
              <mxPoint x="1670" y="4095" />
              <mxPoint x="1670" y="3940" />
            </Array>
          </mxGeometry>
        </mxCell>
        <mxCell id="SHSk5P-QJPTtU_y_XVn0-88" value="Is the task over?" style="strokeWidth=2;html=1;shape=mxgraph.flowchart.decision;whiteSpace=wrap;" vertex="1" parent="1">
          <mxGeometry x="1477.5" y="4040" width="145" height="110" as="geometry" />
        </mxCell>
        <mxCell id="SHSk5P-QJPTtU_y_XVn0-95" value="No" style="text;html=1;align=center;verticalAlign=middle;whiteSpace=wrap;rounded=0;" vertex="1" parent="1">
          <mxGeometry x="1603" y="4070" width="60" height="30" as="geometry" />
        </mxCell>
        <mxCell id="SHSk5P-QJPTtU_y_XVn0-96" value="Yes" style="text;html=1;align=center;verticalAlign=middle;whiteSpace=wrap;rounded=0;" vertex="1" parent="1">
          <mxGeometry x="1537.5" y="4150" width="60" height="30" as="geometry" />
        </mxCell>
        <mxCell id="SHSk5P-QJPTtU_y_XVn0-100" value="" style="edgeStyle=orthogonalEdgeStyle;rounded=0;orthogonalLoop=1;jettySize=auto;html=1;" edge="1" parent="1" source="SHSk5P-QJPTtU_y_XVn0-97" target="SHSk5P-QJPTtU_y_XVn0-99">
          <mxGeometry relative="1" as="geometry" />
        </mxCell>
        <mxCell id="SHSk5P-QJPTtU_y_XVn0-97" value="Wait new tasks" style="rounded=0;whiteSpace=wrap;html=1;" vertex="1" parent="1">
          <mxGeometry x="1585" y="4230" width="170" height="60" as="geometry" />
        </mxCell>
        <mxCell id="SHSk5P-QJPTtU_y_XVn0-103" value="" style="edgeStyle=orthogonalEdgeStyle;rounded=0;orthogonalLoop=1;jettySize=auto;html=1;" edge="1" parent="1" source="SHSk5P-QJPTtU_y_XVn0-99" target="SHSk5P-QJPTtU_y_XVn0-102">
          <mxGeometry relative="1" as="geometry" />
        </mxCell>
        <mxCell id="SHSk5P-QJPTtU_y_XVn0-99" value="Return to the base in a safety way" style="rounded=0;whiteSpace=wrap;html=1;" vertex="1" parent="1">
          <mxGeometry x="1567.5" y="4390" width="205" height="60" as="geometry" />
        </mxCell>
        <mxCell id="SHSk5P-QJPTtU_y_XVn0-101" value="After a certain time of inactivity" style="text;html=1;align=center;verticalAlign=middle;whiteSpace=wrap;rounded=0;" vertex="1" parent="1">
          <mxGeometry x="1673" y="4330" width="110" height="40" as="geometry" />
        </mxCell>
        <mxCell id="SHSk5P-QJPTtU_y_XVn0-102" value="FINISH" style="strokeWidth=2;html=1;shape=mxgraph.flowchart.start_1;whiteSpace=wrap;fillColor=#f8cecc;strokeColor=#b85450;" vertex="1" parent="1">
          <mxGeometry x="1635" y="4523" width="70" height="40" as="geometry" />
        </mxCell>
        <mxCell id="SHSk5P-QJPTtU_y_XVn0-104" value="No" style="text;html=1;align=center;verticalAlign=middle;whiteSpace=wrap;rounded=0;" vertex="1" parent="1">
          <mxGeometry x="1550" y="3350" width="60" height="30" as="geometry" />
        </mxCell>
        <mxCell id="SHSk5P-QJPTtU_y_XVn0-106" value="No" style="text;html=1;align=center;verticalAlign=middle;whiteSpace=wrap;rounded=0;" vertex="1" parent="1">
          <mxGeometry x="1543" y="2690" width="60" height="30" as="geometry" />
        </mxCell>
        <mxCell id="SHSk5P-QJPTtU_y_XVn0-114" style="edgeStyle=orthogonalEdgeStyle;rounded=0;orthogonalLoop=1;jettySize=auto;html=1;entryX=0.5;entryY=0;entryDx=0;entryDy=0;" edge="1" parent="1" source="SHSk5P-QJPTtU_y_XVn0-112" target="SHSk5P-QJPTtU_y_XVn0-84">
          <mxGeometry relative="1" as="geometry" />
        </mxCell>
        <mxCell id="SHSk5P-QJPTtU_y_XVn0-112" value="" style="ellipse;whiteSpace=wrap;html=1;aspect=fixed;" vertex="1" parent="1">
          <mxGeometry x="1541" y="3456" width="18" height="18" as="geometry" />
        </mxCell>
      </root>
    </mxGraphModel>
  </diagram>
</mxfile>
